<svg width="80" height="80" viewBox="0 0 80 80" fill="none" xmlns="http://www.w3.org/2000/svg">
<g filter="url(#filter0_d_2080_5595)">
<rect x="10" y="6" width="60" height="60" rx="8" fill="white"/>
<path d="M56.6654 36C56.6654 45.2048 49.2034 52.6667 39.9987 52.6667M56.6654 36C56.6654 26.7953 49.2034 19.3334 39.9987 19.3334M56.6654 36H23.332M39.9987 52.6667C30.794 52.6667 23.332 45.2048 23.332 36M39.9987 52.6667C44.1675 48.1028 46.5366 42.18 46.6654 36C46.5366 29.8201 44.1675 23.8973 39.9987 19.3334M39.9987 52.6667C35.8299 48.1028 33.4608 42.18 33.332 36C33.4608 29.8201 35.8299 23.8973 39.9987 19.3334M23.332 36C23.332 26.7953 30.794 19.3334 39.9987 19.3334" stroke="#007076" stroke-width="2.5" stroke-linecap="round" stroke-linejoin="round"/>
</g>
<defs>
<filter id="filter0_d_2080_5595" x="0" y="0" width="80" height="80" filterUnits="userSpaceOnUse" color-interpolation-filters="sRGB">
<feFlood flood-opacity="0" result="BackgroundImageFix"/>
<feColorMatrix in="SourceAlpha" type="matrix" values="0 0 0 0 0 0 0 0 0 0 0 0 0 0 0 0 0 0 127 0" result="hardAlpha"/>
<feOffset dy="4"/>
<feGaussianBlur stdDeviation="5"/>
<feComposite in2="hardAlpha" operator="out"/>
<feColorMatrix type="matrix" values="0 0 0 0 0 0 0 0 0 0 0 0 0 0 0 0 0 0 0.25 0"/>
<feBlend mode="normal" in2="BackgroundImageFix" result="effect1_dropShadow_2080_5595"/>
<feBlend mode="normal" in="SourceGraphic" in2="effect1_dropShadow_2080_5595" result="shape"/>
</filter>
</defs>
</svg>
