<svg width="30" height="30" viewBox="0 0 30 30" fill="none" xmlns="http://www.w3.org/2000/svg">
<path d="M6.25 18.75C6.25 13.9175 10.0276 10 14.6875 10H15.3125C19.9724 10 23.75 13.9175 23.75 18.75C23.75 23.5825 19.9724 27.5 15.3125 27.5H14.6875C10.0276 27.5 6.25 23.5825 6.25 18.75Z" fill="#FFDC00" stroke="black" stroke-width="1.5" stroke-linejoin="round"/>
<path d="M15 15H15.75V14.25H15V15ZM14.375 15V14.25H14.066L13.8466 14.4677L14.375 15ZM15 15H14.25V22.5H15H15.75V15H15ZM12.5 22.5V23.25H15V22.5V21.75H12.5V22.5ZM15 22.5V23.25H17.5V22.5V21.75H15V22.5ZM12.5 16.8612L13.0284 17.3935L14.9034 15.5323L14.375 15L13.8466 14.4677L11.9716 16.3289L12.5 16.8612ZM14.375 15V15.75H15V15V14.25H14.375V15Z" fill="black"/>
<path d="M16.9492 2.5L13.75 10M22.4991 2.5L18.9723 10.625" stroke="black" stroke-width="1.5" stroke-linejoin="round"/>
<path d="M13.0489 2.5L15 6.875M7.49899 2.5L11.0258 10.625" stroke="black" stroke-width="1.5" stroke-linejoin="round"/>
</svg>
