<svg width="30" height="30" viewBox="0 0 30 30" fill="none" xmlns="http://www.w3.org/2000/svg">
<path d="M6.25 18.75C6.25 13.9175 10.0276 10 14.6875 10H15.3125C19.9724 10 23.75 13.9175 23.75 18.75C23.75 23.5825 19.9724 27.5 15.3125 27.5H14.6875C10.0276 27.5 6.25 23.5825 6.25 18.75Z" fill="#BEBEBE" stroke="black" stroke-width="1.5" stroke-linejoin="round"/>
<path d="M16.9492 2.5L13.75 10M22.4991 2.5L18.9723 10.625" stroke="black" stroke-width="1.5" stroke-linejoin="round"/>
<path d="M13.0489 2.5L15 6.875M7.49899 2.5L11.0258 10.625" stroke="black" stroke-width="1.5" stroke-linejoin="round"/>
<path d="M13.125 22.5H12.375V23.25H13.125V22.5ZM13.125 21.25L12.6076 20.707L12.375 20.9287V21.25H13.125ZM16.25 18.2726L15.7498 17.7137C15.744 17.7189 15.7383 17.7242 15.7326 17.7296L16.25 18.2726ZM13.125 16.875H13.875C13.875 16.2537 14.3787 15.75 15 15.75V15V14.25C13.5503 14.25 12.375 15.4253 12.375 16.875H13.125ZM15 15V15.75C15.6213 15.75 16.125 16.2537 16.125 16.875H16.875H17.625C17.625 15.4253 16.4497 14.25 15 14.25V15ZM13.125 22.5V23.25H18.125V22.5V21.75H13.125V22.5ZM13.125 22.5H13.875V21.25H13.125H12.375V22.5H13.125ZM16.875 16.875H16.125C16.125 17.2081 15.9812 17.5066 15.7498 17.7137L16.25 18.2726L16.7502 18.8314C17.286 18.3518 17.625 17.6525 17.625 16.875H16.875ZM13.125 21.25L13.6424 21.793L16.7674 18.8156L16.25 18.2726L15.7326 17.7296L12.6076 20.707L13.125 21.25Z" fill="black"/>
</svg>
