<svg width="32" height="32" viewBox="0 0 32 32" fill="none" xmlns="http://www.w3.org/2000/svg">
<path d="M13.332 10.666H25.332M13.332 15.9993H17.332M25.332 15.9993H21.332M13.332 21.3327H17.332M25.332 21.3327H21.332" stroke="#6C6C6C" stroke-width="1.5" stroke-linejoin="round"/>
<path d="M9.33462 23.9993L8.58462 23.9993L9.33462 23.9993ZM2.66797 9.99935V9.24935H1.91797V9.99935H2.66797ZM9.33457 4.66602V3.91602C8.92036 3.91602 8.58457 4.2518 8.58457 4.66602H9.33457ZM29.3346 4.66602H30.0846C30.0846 4.2518 29.7488 3.91602 29.3346 3.91602V4.66602ZM9.33457 9.99935L8.58457 9.99935L8.58462 23.9993L9.33462 23.9993L10.0846 23.9993L10.0846 9.99935L9.33457 9.99935ZM2.66797 23.9994H3.41797V9.99935H2.66797H1.91797V23.9994H2.66797ZM2.66797 9.99935V10.7493H9.33457V9.99935V9.24935H2.66797V9.99935ZM9.33462 23.9993L8.58462 23.9993C8.58463 25.4261 7.42803 26.5827 6.0013 26.5827V27.3327V28.0827C8.25646 28.0827 10.0846 26.2545 10.0846 23.9993L9.33462 23.9993ZM2.66797 23.9994H1.91797C1.91797 26.2545 3.74614 28.0827 6.0013 28.0827V27.3327V26.5827C4.57456 26.5827 3.41797 25.4261 3.41797 23.9994H2.66797ZM9.33457 9.99935H10.0846V4.66602H9.33457H8.58457V9.99935H9.33457ZM9.33457 4.66602V5.41602H29.3346V4.66602V3.91602H9.33457V4.66602ZM29.3346 4.66602H28.5846V24.8327H29.3346H30.0846V4.66602H29.3346ZM26.8346 27.3327V26.5827H6.0013V27.3327V28.0827H26.8346V27.3327ZM29.3346 24.8327H28.5846C28.5846 25.7992 27.8011 26.5827 26.8346 26.5827V27.3327V28.0827C28.6296 28.0827 30.0846 26.6276 30.0846 24.8327H29.3346Z" fill="#6C6C6C"/>
</svg>
