<svg width="33" height="32" viewBox="0 0 33 32" fill="none" xmlns="http://www.w3.org/2000/svg">
<path d="M18.5 26.6673C18.5 26.6673 19.8333 26.6673 21.1667 29.334C21.1667 29.334 25.402 22.6673 29.1667 21.334" stroke="#6C6C6C" stroke-width="1.5" stroke-linecap="round" stroke-linejoin="round"/>
<path d="M9.82812 21.3346H15.1615M9.82812 14.668H20.4948" stroke="#6C6C6C" stroke-width="1.5" stroke-linecap="round"/>
<path d="M9.16667 4.66797C7.09227 4.7302 5.85549 4.96108 4.9997 5.81767C3.82812 6.99033 3.82812 8.87771 3.82813 12.6525L3.82813 21.3272C3.82813 25.1019 3.82813 26.9893 4.9997 28.162C6.17127 29.3346 8.05689 29.3346 11.8281 29.3346L15.1615 29.3346M21.1562 4.66797C23.2306 4.7302 24.4674 4.96108 25.3232 5.81767C26.4948 6.99033 26.4948 8.87771 26.4948 12.6525V18.0013" stroke="#6C6C6C" stroke-width="1.5" stroke-linecap="round"/>
<path d="M9.15625 5.0013C9.15625 3.71264 10.2009 2.66797 11.4896 2.66797H18.8229C20.1116 2.66797 21.1563 3.71264 21.1563 5.0013C21.1563 6.28997 20.1116 7.33464 18.8229 7.33464H11.4896C10.2009 7.33464 9.15625 6.28997 9.15625 5.0013Z" stroke="#6C6C6C" stroke-width="1.5" stroke-linejoin="round"/>
</svg>
