<svg width="60" height="60" viewBox="0 0 60 60" fill="none" xmlns="http://www.w3.org/2000/svg">
<rect width="60" height="60" rx="30" fill="white" fill-opacity="0.15"/>
<path d="M34.8771 14.8516L23.7892 20.1741C22.9358 20.5837 22.0241 20.6864 21.0946 20.4781C20.4863 20.3419 20.1821 20.2737 19.9372 20.2458C16.8957 19.8984 15 22.3056 15 25.0737V26.5928C15 29.3609 16.8957 31.7681 19.9372 31.4207C20.1821 31.3928 20.4863 31.3246 21.0946 31.1884C22.0241 30.9802 22.9359 31.0828 23.7892 31.4924L34.8771 36.8149C37.4224 38.0367 38.695 38.6476 40.114 38.1714C41.5329 37.6952 42.0199 36.6735 42.994 34.63C45.6687 29.0185 45.6687 22.648 42.994 17.0365C42.0199 14.993 41.5329 13.9713 40.114 13.4951C38.695 13.0189 37.4224 13.6298 34.8771 14.8516Z" stroke="white" stroke-width="2.5" stroke-linecap="round" stroke-linejoin="round"/>
<path d="M29.0942 44.618L26.6086 46.6665C21.006 42.223 21.6905 40.104 21.6905 31.6665H23.5802C24.347 36.4347 26.1559 38.6932 28.652 40.3282C30.1894 41.3352 30.5065 43.454 29.0942 44.618Z" stroke="white" stroke-width="2.5" stroke-linecap="round" stroke-linejoin="round"/>
<path d="M22.5 30.8333V20.8333" stroke="white" stroke-width="2.5" stroke-linecap="round" stroke-linejoin="round"/>
</svg>
