<svg width="80" height="80" viewBox="0 0 80 80" fill="none" xmlns="http://www.w3.org/2000/svg">
<rect width="80" height="80" rx="40" fill="white" fill-opacity="0.15"/>
<path opacity="0.4" d="M40 26L40 58.6667" stroke="white" stroke-width="2.5" stroke-linecap="round"/>
<path d="M25.952 19.666C33.7482 21.1504 38.3947 24.2554 39.9974 26.038C41.6001 24.2554 46.2466 21.1504 54.0428 19.666C57.9923 18.914 59.9671 18.538 61.6489 19.9792C63.3307 21.4203 63.3307 23.7605 63.3307 28.4409V45.2616C63.3307 49.5412 63.3307 51.6809 62.2513 53.0169C61.1719 54.3528 58.7956 54.8053 54.0428 55.7102C49.806 56.5169 46.4994 57.8022 44.106 59.0938C41.7512 60.3646 40.5737 61 39.9974 61C39.4211 61 38.2436 60.3646 35.8888 59.0938C33.4954 57.8022 30.1888 56.5169 25.952 55.7102C21.1992 54.8053 18.8229 54.3528 17.7435 53.0169C16.6641 51.6809 16.6641 49.5412 16.6641 45.2616V28.4409C16.6641 23.7605 16.6641 21.4203 18.3459 19.9792C20.0277 18.538 22.0025 18.914 25.952 19.666Z" stroke="white" stroke-width="2.5" stroke-linecap="round" stroke-linejoin="round"/>
</svg>
