<svg width="61" height="60" viewBox="0 0 61 60" fill="none" xmlns="http://www.w3.org/2000/svg">
<rect x="0.5" width="60" height="60" rx="30" fill="white" fill-opacity="0.15"/>
<path d="M30.5025 46.6666C21.2978 46.6666 13.8359 39.2047 13.8359 29.9999C13.8359 20.7952 21.2979 13.3333 30.5026 13.3333C37.9653 13.3333 44.2121 18.2381 46.3359 24.9999H41.3359" stroke="white" stroke-width="2.5" stroke-linejoin="round"/>
<path d="M30.5 21.6665V29.9998L34.6667 34.1665" stroke="white" stroke-width="2.5"/>
<path d="M47.0918 31.6667C47.1413 31.1181 47.1667 30.5622 47.1667 30M35.5 46.6667C36.0693 46.4793 36.6255 46.2607 37.1667 46.0129M45.151 38.3333C45.4724 37.714 45.7591 37.0721 46.0084 36.4104M40.8208 43.7154C41.3949 43.2402 41.9385 42.7264 42.448 42.1775" stroke="white" stroke-width="2.5" stroke-linecap="square" stroke-linejoin="round"/>
</svg>
