<svg width="80" height="74" viewBox="0 0 80 74" fill="none" xmlns="http://www.w3.org/2000/svg">
<g filter="url(#filter0_d_3084_8639)">
<rect x="10" width="60" height="60" rx="30" fill="white"/>
<path d="M56.6693 30C56.6693 39.2048 49.2074 46.6667 40.0026 46.6667M56.6693 30C56.6693 20.7953 49.2074 13.3334 40.0026 13.3334M56.6693 30H23.3359M40.0026 46.6667C30.7979 46.6667 23.3359 39.2048 23.3359 30M40.0026 46.6667C44.1714 42.1028 46.5405 36.18 46.6693 30C46.5405 23.8201 44.1714 17.8973 40.0026 13.3334M40.0026 46.6667C35.8338 42.1028 33.4647 36.18 33.3359 30C33.4647 23.8201 35.8338 17.8973 40.0026 13.3334M23.3359 30C23.3359 20.7953 30.7979 13.3334 40.0026 13.3334" stroke="#007076" stroke-width="2.5" stroke-linecap="round" stroke-linejoin="round"/>
</g>
<defs>
<filter id="filter0_d_3084_8639" x="0" y="-6" width="80" height="80" filterUnits="userSpaceOnUse" color-interpolation-filters="sRGB">
<feFlood flood-opacity="0" result="BackgroundImageFix"/>
<feColorMatrix in="SourceAlpha" type="matrix" values="0 0 0 0 0 0 0 0 0 0 0 0 0 0 0 0 0 0 127 0" result="hardAlpha"/>
<feOffset dy="4"/>
<feGaussianBlur stdDeviation="5"/>
<feComposite in2="hardAlpha" operator="out"/>
<feColorMatrix type="matrix" values="0 0 0 0 0 0 0 0 0 0 0 0 0 0 0 0 0 0 0.25 0"/>
<feBlend mode="normal" in2="BackgroundImageFix" result="effect1_dropShadow_3084_8639"/>
<feBlend mode="normal" in="SourceGraphic" in2="effect1_dropShadow_3084_8639" result="shape"/>
</filter>
</defs>
</svg>
