<svg width="80" height="74" viewBox="0 0 80 74" fill="none" xmlns="http://www.w3.org/2000/svg">
<g filter="url(#filter0_d_3084_8587)">
<rect x="10" width="60" height="60" rx="30" fill="white"/>
<path d="M41.6677 18.3334C41.6677 18.9184 41.5672 19.4799 41.3826 20.0016L49.9994 20.0016V28.6184C50.5212 28.4338 51.0827 28.3334 51.6677 28.3334C54.4291 28.3334 56.6677 30.5719 56.6677 33.3334C56.6677 36.0948 54.4291 38.3334 51.6677 38.3334C51.0827 38.3334 50.5212 38.2329 49.9994 38.0483V46.6651H41.3837C41.5676 46.1443 41.6677 45.5838 41.6677 45C41.6677 42.2386 39.4291 40 36.6677 40C33.9062 40 31.6677 42.2386 31.6677 45C31.6677 45.5838 31.7677 46.1443 31.9516 46.6651H23.3363L23.3359 38.0494C23.8568 38.2333 24.4172 38.3334 25.001 38.3334C27.7624 38.3334 30.001 36.0948 30.001 33.3334C30.001 30.5719 27.7624 28.3334 25.001 28.3334C24.4172 28.3334 23.8568 28.4334 23.3359 28.6173L23.3369 20.0016H31.9527C31.7681 19.4799 31.6677 18.9184 31.6677 18.3334C31.6677 15.572 33.9062 13.3334 36.6677 13.3334C39.4291 13.3334 41.6677 15.572 41.6677 18.3334Z" stroke="#007076" stroke-width="2.5"/>
</g>
<defs>
<filter id="filter0_d_3084_8587" x="0" y="-6" width="80" height="80" filterUnits="userSpaceOnUse" color-interpolation-filters="sRGB">
<feFlood flood-opacity="0" result="BackgroundImageFix"/>
<feColorMatrix in="SourceAlpha" type="matrix" values="0 0 0 0 0 0 0 0 0 0 0 0 0 0 0 0 0 0 127 0" result="hardAlpha"/>
<feOffset dy="4"/>
<feGaussianBlur stdDeviation="5"/>
<feComposite in2="hardAlpha" operator="out"/>
<feColorMatrix type="matrix" values="0 0 0 0 0 0 0 0 0 0 0 0 0 0 0 0 0 0 0.25 0"/>
<feBlend mode="normal" in2="BackgroundImageFix" result="effect1_dropShadow_3084_8587"/>
<feBlend mode="normal" in="SourceGraphic" in2="effect1_dropShadow_3084_8587" result="shape"/>
</filter>
</defs>
</svg>
